<mxfile host="app.diagrams.net" modified="2023-03-26T07:28:15.769Z" agent="Mozilla/5.0 (Windows NT 10.0; Win64; x64) AppleWebKit/537.36 (KHTML, like Gecko) Chrome/111.0.0.0 Safari/537.36" etag="D7m8L0yyC8BugBZW0SiD" version="21.1.1" type="device">
  <diagram name="1 oldal" id="knLuDj7Rt-JNHRL0MsrI">
    <mxGraphModel dx="1395" dy="630" grid="1" gridSize="10" guides="1" tooltips="1" connect="1" arrows="1" fold="1" page="1" pageScale="1" pageWidth="827" pageHeight="1169" math="0" shadow="0">
      <root>
        <mxCell id="0" />
        <mxCell id="1" parent="0" />
        <mxCell id="_TdOCUHqMq7MvxRiJ0_j-8" value="" style="edgeStyle=orthogonalEdgeStyle;rounded=0;orthogonalLoop=1;jettySize=auto;html=1;" parent="1" source="_TdOCUHqMq7MvxRiJ0_j-1" edge="1">
          <mxGeometry relative="1" as="geometry">
            <mxPoint x="185" y="150" as="targetPoint" />
          </mxGeometry>
        </mxCell>
        <object label="Customer" User="" id="_TdOCUHqMq7MvxRiJ0_j-1">
          <mxCell style="shape=umlActor;verticalLabelPosition=bottom;verticalAlign=top;html=1;outlineConnect=0;fontFamily=Helvetica;" parent="1" vertex="1">
            <mxGeometry x="170" y="20" width="30" height="60" as="geometry" />
          </mxCell>
        </object>
        <mxCell id="_TdOCUHqMq7MvxRiJ0_j-11" value="" style="edgeStyle=orthogonalEdgeStyle;rounded=0;orthogonalLoop=1;jettySize=auto;html=1;" parent="1" source="_TdOCUHqMq7MvxRiJ0_j-9" target="_TdOCUHqMq7MvxRiJ0_j-10" edge="1">
          <mxGeometry relative="1" as="geometry" />
        </mxCell>
        <mxCell id="_TdOCUHqMq7MvxRiJ0_j-13" value="" style="edgeStyle=orthogonalEdgeStyle;rounded=0;orthogonalLoop=1;jettySize=auto;html=1;" parent="1" source="_TdOCUHqMq7MvxRiJ0_j-9" target="_TdOCUHqMq7MvxRiJ0_j-12" edge="1">
          <mxGeometry relative="1" as="geometry" />
        </mxCell>
        <mxCell id="_TdOCUHqMq7MvxRiJ0_j-16" value="" style="edgeStyle=orthogonalEdgeStyle;rounded=0;orthogonalLoop=1;jettySize=auto;html=1;" parent="1" source="_TdOCUHqMq7MvxRiJ0_j-9" target="_TdOCUHqMq7MvxRiJ0_j-15" edge="1">
          <mxGeometry relative="1" as="geometry" />
        </mxCell>
        <mxCell id="_TdOCUHqMq7MvxRiJ0_j-9" value="Webshop&lt;br&gt;homepage" style="rhombus;whiteSpace=wrap;html=1;" parent="1" vertex="1">
          <mxGeometry x="131.25" y="150" width="107.5" height="100" as="geometry" />
        </mxCell>
        <mxCell id="_TdOCUHqMq7MvxRiJ0_j-10" value="Login" style="whiteSpace=wrap;html=1;" parent="1" vertex="1">
          <mxGeometry x="125" y="290" width="120" height="60" as="geometry" />
        </mxCell>
        <mxCell id="_TdOCUHqMq7MvxRiJ0_j-12" value="Registration" style="whiteSpace=wrap;html=1;" parent="1" vertex="1">
          <mxGeometry x="5" y="170" width="120" height="60" as="geometry" />
        </mxCell>
        <mxCell id="_TdOCUHqMq7MvxRiJ0_j-19" value="" style="edgeStyle=orthogonalEdgeStyle;rounded=0;orthogonalLoop=1;jettySize=auto;html=1;" parent="1" source="_TdOCUHqMq7MvxRiJ0_j-15" target="_TdOCUHqMq7MvxRiJ0_j-18" edge="1">
          <mxGeometry relative="1" as="geometry" />
        </mxCell>
        <mxCell id="_TdOCUHqMq7MvxRiJ0_j-15" value="Products page" style="whiteSpace=wrap;html=1;" parent="1" vertex="1">
          <mxGeometry x="280" y="170" width="120" height="60" as="geometry" />
        </mxCell>
        <mxCell id="_TdOCUHqMq7MvxRiJ0_j-17" value="" style="endArrow=classic;html=1;rounded=0;exitX=1;exitY=0.5;exitDx=0;exitDy=0;entryX=0.5;entryY=1;entryDx=0;entryDy=0;" parent="1" source="_TdOCUHqMq7MvxRiJ0_j-10" target="_TdOCUHqMq7MvxRiJ0_j-15" edge="1">
          <mxGeometry width="50" height="50" relative="1" as="geometry">
            <mxPoint x="340" y="310" as="sourcePoint" />
            <mxPoint x="390" y="260" as="targetPoint" />
          </mxGeometry>
        </mxCell>
        <mxCell id="_TdOCUHqMq7MvxRiJ0_j-21" value="" style="edgeStyle=orthogonalEdgeStyle;rounded=0;orthogonalLoop=1;jettySize=auto;html=1;" parent="1" source="_TdOCUHqMq7MvxRiJ0_j-18" target="_TdOCUHqMq7MvxRiJ0_j-20" edge="1">
          <mxGeometry relative="1" as="geometry" />
        </mxCell>
        <mxCell id="_TdOCUHqMq7MvxRiJ0_j-18" value="Product page&lt;br&gt;+ add product to basket" style="whiteSpace=wrap;html=1;" parent="1" vertex="1">
          <mxGeometry x="480" y="170" width="120" height="60" as="geometry" />
        </mxCell>
        <mxCell id="_TdOCUHqMq7MvxRiJ0_j-26" value="" style="edgeStyle=orthogonalEdgeStyle;rounded=0;orthogonalLoop=1;jettySize=auto;html=1;" parent="1" source="_TdOCUHqMq7MvxRiJ0_j-20" target="_TdOCUHqMq7MvxRiJ0_j-25" edge="1">
          <mxGeometry relative="1" as="geometry" />
        </mxCell>
        <mxCell id="_TdOCUHqMq7MvxRiJ0_j-20" value="User is &lt;br&gt;logged in?" style="rhombus;whiteSpace=wrap;html=1;" parent="1" vertex="1">
          <mxGeometry x="485" y="260" width="110" height="110" as="geometry" />
        </mxCell>
        <mxCell id="_TdOCUHqMq7MvxRiJ0_j-22" value="" style="endArrow=classic;html=1;rounded=0;exitX=0;exitY=0.5;exitDx=0;exitDy=0;entryX=1;entryY=0.75;entryDx=0;entryDy=0;" parent="1" source="_TdOCUHqMq7MvxRiJ0_j-20" target="_TdOCUHqMq7MvxRiJ0_j-10" edge="1">
          <mxGeometry width="50" height="50" relative="1" as="geometry">
            <mxPoint x="340" y="290" as="sourcePoint" />
            <mxPoint x="390" y="240" as="targetPoint" />
          </mxGeometry>
        </mxCell>
        <mxCell id="_TdOCUHqMq7MvxRiJ0_j-23" value="" style="endArrow=classic;startArrow=classic;html=1;rounded=0;exitX=0;exitY=0.5;exitDx=0;exitDy=0;entryX=0.5;entryY=1;entryDx=0;entryDy=0;" parent="1" source="_TdOCUHqMq7MvxRiJ0_j-10" target="_TdOCUHqMq7MvxRiJ0_j-12" edge="1">
          <mxGeometry width="50" height="50" relative="1" as="geometry">
            <mxPoint x="340" y="290" as="sourcePoint" />
            <mxPoint x="390" y="240" as="targetPoint" />
          </mxGeometry>
        </mxCell>
        <mxCell id="_TdOCUHqMq7MvxRiJ0_j-24" value="False" style="text;html=1;strokeColor=none;fillColor=none;align=center;verticalAlign=middle;whiteSpace=wrap;rounded=0;" parent="1" vertex="1">
          <mxGeometry x="360" y="290" width="60" height="30" as="geometry" />
        </mxCell>
        <mxCell id="_TdOCUHqMq7MvxRiJ0_j-29" value="" style="edgeStyle=orthogonalEdgeStyle;rounded=0;orthogonalLoop=1;jettySize=auto;html=1;" parent="1" source="_TdOCUHqMq7MvxRiJ0_j-25" target="_TdOCUHqMq7MvxRiJ0_j-28" edge="1">
          <mxGeometry relative="1" as="geometry" />
        </mxCell>
        <mxCell id="_TdOCUHqMq7MvxRiJ0_j-25" value="Cart" style="whiteSpace=wrap;html=1;" parent="1" vertex="1">
          <mxGeometry x="660" y="285" width="120" height="60" as="geometry" />
        </mxCell>
        <mxCell id="_TdOCUHqMq7MvxRiJ0_j-27" value="True" style="text;html=1;strokeColor=none;fillColor=none;align=center;verticalAlign=middle;whiteSpace=wrap;rounded=0;" parent="1" vertex="1">
          <mxGeometry x="590" y="285" width="60" height="30" as="geometry" />
        </mxCell>
        <mxCell id="_TdOCUHqMq7MvxRiJ0_j-28" value="Summarize order&lt;br&gt;+&lt;br&gt;Place order" style="whiteSpace=wrap;html=1;" parent="1" vertex="1">
          <mxGeometry x="660" y="425" width="120" height="60" as="geometry" />
        </mxCell>
        <mxCell id="a0MwdyPE7bOzYd0k1NEC-7" value="" style="edgeStyle=orthogonalEdgeStyle;rounded=0;orthogonalLoop=1;jettySize=auto;html=1;fontFamily=Helvetica;fontSize=12;fontColor=default;" edge="1" parent="1" source="a0MwdyPE7bOzYd0k1NEC-1" target="a0MwdyPE7bOzYd0k1NEC-6">
          <mxGeometry relative="1" as="geometry" />
        </mxCell>
        <mxCell id="a0MwdyPE7bOzYd0k1NEC-1" value="Admin" style="shape=umlActor;verticalLabelPosition=bottom;verticalAlign=top;html=1;outlineConnect=0;" vertex="1" parent="1">
          <mxGeometry x="70" y="560" width="30" height="60" as="geometry" />
        </mxCell>
        <mxCell id="a0MwdyPE7bOzYd0k1NEC-2" value="" style="endArrow=none;dashed=1;html=1;rounded=0;" edge="1" parent="1">
          <mxGeometry width="50" height="50" relative="1" as="geometry">
            <mxPoint x="10" y="540" as="sourcePoint" />
            <mxPoint x="820" y="540" as="targetPoint" />
          </mxGeometry>
        </mxCell>
        <mxCell id="a0MwdyPE7bOzYd0k1NEC-9" value="" style="edgeStyle=orthogonalEdgeStyle;rounded=0;orthogonalLoop=1;jettySize=auto;html=1;fontFamily=Helvetica;fontSize=12;fontColor=default;" edge="1" parent="1" source="a0MwdyPE7bOzYd0k1NEC-6" target="a0MwdyPE7bOzYd0k1NEC-8">
          <mxGeometry relative="1" as="geometry" />
        </mxCell>
        <mxCell id="a0MwdyPE7bOzYd0k1NEC-11" value="" style="edgeStyle=orthogonalEdgeStyle;rounded=0;orthogonalLoop=1;jettySize=auto;html=1;fontFamily=Helvetica;fontSize=12;fontColor=default;" edge="1" parent="1" source="a0MwdyPE7bOzYd0k1NEC-6" target="a0MwdyPE7bOzYd0k1NEC-10">
          <mxGeometry relative="1" as="geometry" />
        </mxCell>
        <mxCell id="a0MwdyPE7bOzYd0k1NEC-13" value="" style="edgeStyle=orthogonalEdgeStyle;rounded=0;orthogonalLoop=1;jettySize=auto;html=1;fontFamily=Helvetica;fontSize=12;fontColor=default;" edge="1" parent="1" source="a0MwdyPE7bOzYd0k1NEC-6" target="a0MwdyPE7bOzYd0k1NEC-12">
          <mxGeometry relative="1" as="geometry" />
        </mxCell>
        <mxCell id="a0MwdyPE7bOzYd0k1NEC-6" value="Login" style="whiteSpace=wrap;html=1;" vertex="1" parent="1">
          <mxGeometry x="25" y="680" width="120" height="60" as="geometry" />
        </mxCell>
        <mxCell id="a0MwdyPE7bOzYd0k1NEC-8" value="Create new product" style="whiteSpace=wrap;html=1;" vertex="1" parent="1">
          <mxGeometry x="260" y="585" width="120" height="60" as="geometry" />
        </mxCell>
        <mxCell id="a0MwdyPE7bOzYd0k1NEC-10" value="Delete existing product" style="whiteSpace=wrap;html=1;" vertex="1" parent="1">
          <mxGeometry x="260" y="780" width="120" height="60" as="geometry" />
        </mxCell>
        <mxCell id="a0MwdyPE7bOzYd0k1NEC-12" value="Update existing product" style="whiteSpace=wrap;html=1;" vertex="1" parent="1">
          <mxGeometry x="420" y="680" width="120" height="60" as="geometry" />
        </mxCell>
      </root>
    </mxGraphModel>
  </diagram>
</mxfile>
